HIERARCHY
ROOT Hips
{
  OFFSET -102.467 93.6631 130.069
  CHANNELS 6 Xposition Yposition Zposition Zrotation Xrotation Yrotation
  JOINT LeftUpLeg
  {
    OFFSET 8.64259 1.95398 -2.38835
    CHANNELS 3 Zrotation Xrotation Yrotation
    JOINT LeftLeg
    {
      OFFSET 43.7702 0 0
      CHANNELS 3 Zrotation Xrotation Yrotation
      JOINT LeftFoot
      {
        OFFSET 40.6238 0 0
        CHANNELS 3 Zrotation Xrotation Yrotation
        JOINT LeftToeBase
        {
          OFFSET 12.7242 0 0
          CHANNELS 3 Zrotation Xrotation Yrotation
          End Site
          {
            OFFSET 0 0 0
          }
        }
      }
    }
  }
  JOINT RightUpLeg
  {
    OFFSET -8.2249 1.95398 -2.59336
    CHANNELS 3 Zrotation Xrotation Yrotation
    JOINT RightLeg
    {
      OFFSET 43.5653 0 0
      CHANNELS 3 Zrotation Xrotation Yrotation
      JOINT RightFoot
      {
        OFFSET 40.6238 0 0
        CHANNELS 3 Zrotation Xrotation Yrotation
        JOINT RightToeBase
        {
          OFFSET 12.7242 0 0
          CHANNELS 3 Zrotation Xrotation Yrotation
          End Site
          {
            OFFSET 0 0 0
          }
        }
      }
    }
  }
  JOINT Spine
  {
    OFFSET 0.165834 0.87714 6.61349
    CHANNELS 3 Zrotation Xrotation Yrotation
    JOINT Spine1
    {
      OFFSET 7.38963 1.71661e-005 0
      CHANNELS 3 Zrotation Xrotation Yrotation
      JOINT Spine2
      {
        OFFSET 11.9445 1.14441e-005 0
        CHANNELS 3 Zrotation Xrotation Yrotation
        JOINT Spine3
        {
          OFFSET 14.7254 4.19617e-005 0
          CHANNELS 3 Zrotation Xrotation Yrotation
          JOINT Spine4
          {
            OFFSET 10.9679 0 0
            CHANNELS 3 Zrotation Xrotation Yrotation
            JOINT RightShoulder
            {
              OFFSET 2.46616 -1.6653 3.69651
              CHANNELS 3 Zrotation Xrotation Yrotation
              JOINT RightArm
              {
                OFFSET 13.0012 0 0
                CHANNELS 3 Zrotation Xrotation Yrotation
                JOINT RightForeArm
                {
                  OFFSET 28.7848 1.52588e-005 0
                  CHANNELS 3 Zrotation Xrotation Yrotation
                  JOINT RightHand
                  {
                    OFFSET 26.5688 1.52588e-005 0
                    CHANNELS 3 Zrotation Xrotation Yrotation
                    End Site
                    {
                      OFFSET 0 0 0
                    }
                  }
                }
              }
            }
            JOINT LeftShoulder
            {
              OFFSET 2.38034 -1.29275 -3.7523
              CHANNELS 3 Zrotation Xrotation Yrotation
              JOINT LeftArm
              {
                OFFSET 16.3182 6.10351e-005 0
                CHANNELS 3 Zrotation Xrotation Yrotation
                JOINT LeftForeArm
                {
                  OFFSET 27.0901 0 0
                  CHANNELS 3 Zrotation Xrotation Yrotation
                  JOINT LeftHand
                  {
                    OFFSET 24.5451 1.52588e-005 0
                    CHANNELS 3 Zrotation Xrotation Yrotation
                    End Site
                    {
                      OFFSET 0 0 0
                    }
                  }
                }
              }
            }
            JOINT Neck
            {
              OFFSET 5.0226 -0.0266342 0
              CHANNELS 3 Zrotation Xrotation Yrotation
              JOINT Head
              {
                OFFSET 6.69363 2.86102e-005 0
                CHANNELS 3 Zrotation Xrotation Yrotation
                End Site
                {
                  OFFSET 0 0 0
                }
              }
            }
          }
        }
      }
    }
  }
}
MOTION
Frames:	10
Frame Time:	0.0416667
246.555 72.2034 251.934 -111.168 17.9691 -66.4143 -111.631 4.30323 173.599 169.814 59.0609 -177.899 47.7863 -15.0712 6.90237 97.5634 -9.54911 -0.0961577 162.319 24.9213 97.2467 -70.1776 48.1203 -3.31939 -152.708 -22.0467 133.476 149.949 23.8677 33.6264 -3.8949 16.4811 -91.4212 -6.29801 -8.14035 -3.80965 -17.9479 -8.30001 -3.44593 -40.5876 -6.62007 -6.0845 -20.575 -6.62006 -6.08448 -107.911 -73.4512 72.3985 -37.3822 0.616604 -22.0966 -170.262 12.9817 -39.7716 -9.32117 3.20841 -45.8249 151.135 -46.3402 -51.0685 -0.638704 -35.3667 -152.893 -11.7234 -10.2063 -0.0288018 -154.689 -49.9031 8.6929 127.658 -53.8873 8.38496 -45.961 -40.6322 -5.03226 
247.194 72.2635 252.526 -110.762 17.1849 -66.4138 -112.346 5.92743 173.602 169.747 57.9401 -177.852 48.8759 -14.765 7.1379 96.2863 -9.05438 0.237865 162.2 25.1724 97.0013 -70.2792 47.3683 -2.38072 -152.233 -22.7226 135.038 148.389 26.0466 34.8455 -3.90749 16.4948 -91.5622 -6.33984 -8.20837 -4.0946 -17.99 -8.38046 -3.72765 -40.6199 -6.59977 -6.37586 -20.6072 -6.59977 -6.37585 -107.621 -73.3002 72.6867 -37.7141 1.3965 -22.2038 -166.864 16.9244 -40.7198 -10.6213 3.64559 -45.4972 151.425 -45.8947 -51.03 0.116915 -36.2616 -152.067 -12.6648 -8.60907 -0.028669 -155.099 -46.8371 7.60691 128.473 -53.0781 9.01691 -45.9268 -40.9527 -4.92437 
249.013 72.4328 254.21 -109.614 14.9529 -66.3857 -114.353 10.3079 173.569 169.787 54.2991 -177.906 52.2789 -13.6852 8.23019 92.3938 -7.07349 2.03701 161.997 25.8763 96.2249 -70.412 45.3765 0.238039 -151.077 -24.4803 139.344 144.306 30.8433 38.0155 -3.94026 16.526 -91.9651 -6.44552 -8.39622 -4.90705 -18.0971 -8.60377 -4.53128 -40.7032 -6.53641 -7.20444 -20.6905 -6.53641 -7.20443 -106.812 -72.8726 73.4867 -38.6437 3.59776 -22.4906 -146.257 35.6761 -50.3455 -17.2713 6.28603 -46.6252 152.196 -44.6394 -50.9606 2.31899 -38.5885 -149.649 -15.1441 -6.35837 -0.0285214 -155.246 -40.4711 5.77291 130.611 -50.691 10.6377 -45.8028 -41.8465 -4.47654 
251.867 72.6857 256.854 -107.852 11.4801 -66.2445 -117.42 16.4718 173.403 170.343 47.4545 -178.428 58.6049 -10.9343 11.2292 85.0386 -2.93859 6.99969 162.161 26.668 94.6829 -69.9862 42.6724 4.28383 -149.836 -26.855 145.663 138.973 35.6497 42.1432 -3.98207 16.5525 -92.5969 -6.57087 -8.67189 -6.17492 -18.2256 -8.93476 -5.78633 -40.7855 -6.42184 -8.49132 -20.7728 -6.42185 -8.49131 -105.579 -72.2077 74.6966 -40.0688 6.98924 -22.8818 -67.0534 49.0046 -109.429 -23.2781 11.4297 -57.5915 153.262 -42.7086 -50.9593 5.87854 -41.6126 -145.719 -18.5074 -7.0982 -0.0285649 -154.37 -35.1086 4.62864 133.496 -46.7312 12.6961 -45.5746 -43.1529 -3.33319 
255.627 72.9817 260.334 -105.618 7.03138 -65.8851 -121.353 23.4032 173.055 171.245 37.7736 -179.243 68.4535 -4.57983 16.3467 71.8599 1.87729 15.3113 163.279 27.2585 92.1692 -68.5382 40.0836 9.54442 -149.19 -29.5549 153.172 133.53 39.3549 46.3645 -4.02142 16.5478 -93.4151 -6.6618 -9.00081 -7.80653 -18.3226 -9.3347 -7.40296 -40.8076 -6.25169 -10.138 -20.795 -6.25168 -10.138 -104.01 -71.3511 76.2148 -41.9028 11.2992 -23.2888 -29.4508 30.6827 -134.443 -21.2223 12.2202 -66.1935 154.42 -40.2598 -51.1251 10.6628 -44.5914 -140.42 -22.1488 -11.8495 -0.0331486 -152.683 -32.5096 4.44602 136.527 -41.2077 14.6105 -45.2205 -44.6266 -1.02398 
260.182 73.2672 264.535 -103.042 1.91264 -65.2398 -125.937 30.2925 172.421 171.968 27.5374 -179.554 81.594 6.14735 20.7737 51.6976 3.78264 23.9434 165.918 27.1173 88.5925 -65.5573 38.5933 15.8008 -149.719 -32.6102 161.152 128.578 41.9621 50.2227 -4.05077 16.4878 -94.3666 -6.66894 -9.35428 -9.68999 -18.3393 -9.76987 -9.27081 -40.7167 -6.03352 -12.0289 -20.7041 -6.03354 -12.0289 -102.202 -70.3561 77.9336 -44.0851 16.2188 -23.6276 -19.7747 21.7008 -138.408 -20.1226 12.2872 -69.3345 155.489 -37.4748 -51.5212 16.4241 -46.9752 -134.03 -27.0055 -17.5279 -4.3968 -150.325 -32.4352 5.15786 140.662 -26.5292 11.9976 -51.6757 -41.723 12.7974 
265.427 73.4766 269.341 -100.233 -3.55594 -64.281 -130.567 36.6423 170.531 172.731 18.1815 -179.687 96.8389 18.0084 21.2939 29.0564 1.96706 29.5143 170.373 25.5346 84.2817 -60.4243 39.3833 22.4829 -151.851 -36.3768 169.102 124.292 43.781 53.5903 -4.0675 16.3565 -95.3907 -6.55564 -9.71222 -11.7011 -18.2392 -10.2145 -11.2668 -40.4774 -5.7865 -14.0398 -20.4647 -5.78649 -14.0398 -100.272 -69.2825 79.7318 -46.5764 21.4228 -23.8166 -15.2419 16.9489 -139.36 -20.0059 12.5901 -70.915 156.325 -34.5534 -52.1651 22.7475 -48.4418 -127.004 -33.8012 -22.4459 -12.0003 -147.268 -33.9605 6.63851 141.688 -17.7886 10.8648 -48.9442 -42.7219 21.3359 
271.224 73.5296 274.607 -97.2877 -9.04347 -63.0251 -134.332 42.048 166.825 173.506 12.3753 -179.775 112.008 26.0826 15.6531 10.656 -0.990641 32.5486 176.449 21.7084 80.3523 -51.7499 43.9684 27.7114 -156.024 -41.4297 176.716 120.612 45.1086 56.5284 -4.07289 16.1485 -96.4252 -6.30257 -10.0621 -13.7156 -18.0025 -10.6508 -13.2672 -40.0766 -5.53626 -16.0491 -20.064 -5.53626 -16.0491 -98.3589 -68.1949 81.4783 -49.3496 26.5973 -23.773 -12.3157 13.8966 -139.409 -20.2878 13.021 -71.9161 156.818 -31.7023 -53.0284 29.0975 -48.8772 -119.899 -41.8963 -26.1979 -20.2756 -143.553 -36.1116 8.70724 141.818 -8.29934 10.2604 -48.2093 -43.3047 27.1307 
277.381 73.3491 280.136 -94.2893 -14.2675 -61.5366 -136.822 46.2187 161.704 174.223 8.58139 -179.834 123.62 29.1976 9.08985 -1.42562 -3.5702 34.794 -176.617 14.3995 79.9183 -30.737 54.3635 22.1077 -164.179 -48.5086 -176.075 117.419 46.1443 59.1432 -4.07096 15.8692 -97.4154 -5.9123 -10.3981 -15.6267 -17.6305 -11.0679 -15.1656 -39.5269 -5.30835 -17.9545 -19.5143 -5.30835 -17.9545 -96.5951 -67.1572 83.059 -52.385 31.469 -23.4258 -10.1181 11.7823 -139.009 -20.7491 13.5074 -72.6174 156.925 -29.1031 -54.0429 34.9665 -48.3497 -113.223 -50.5717 -27.9619 -28.7339 -139.374 -38.2191 11.142 140.897 0.875431 10.6708 -48.2935 -44.1106 29.7425 
283.672 72.8937 285.698 -91.3085 -19.0191 -59.8892 -138.16 49.077 155.776 174.757 35.4759 -179.846 149.936 -1.3821 -2.18364 -8.76816 -5.57775 36.6852 -168.155 9.57855 78.6027 -16.1005 66.8818 14.193 -172.166 -53.2951 -174.238 114.628 46.9924 61.4988 -4.06655 15.5346 -98.3202 -5.40766 -10.7174 -17.3568 -17.1445 -11.4601 -16.8842 -38.8622 -5.12187 -19.6821 -18.8496 -5.12187 -19.6821 -95.0696 -66.2245 84.4033 -55.6605 35.8144 -22.7309 -8.35026 10.3318 -138.318 -21.2982 14.0167 -73.1384 156.667 -26.8796 -55.1193 40.0165 -47.058 -107.292 -58.8429 -27.697 -36.608 -135.012 -39.9774 13.7237 138.892 9.11373 12.2224 -48.5243 -45.0879 29.9328 
